ExternalForces									
version=1									
nRows=158									
nColumns=10									
inDegrees=yes									
endheader									
time	chair_force_vx	chair_force_vy	chair_force_vz	chair_force_px	chair_force_py	chair_force_pz	chair_torque_x	chair_torque_y	chair_torque_z
0	3.00887517	238.0398398	0	0	0	0	0	0	0
0.00646443	10.25027642	228.8886921	0	0	0	0	0	0	0
0.00745311	6.3955576	236.7468112	0	0	0	0	0	0	0
0.00974612	6.94103271	238.6372551	0	0	0	0	0	0	0
0.01674019	13.73330467	238.6352358	0	0	0	0	0	0	0
0.02373425	21.63827191	239.6467556	0	0	0	0	0	0	0
0.036041	48.03571895	221.4376062	0	0	0	0	0	0	0
0.03727167	45.1464606	229.4982204	0	0	0	0	0	0	0
0.03949199	46.31474699	232.8588685	0	0	0	0	0	0	0
0.05000372	60.02304917	235.3574836	0	0	0	0	0	0	0
0.06348859	79.79224849	235.9624842	0	0	0	0	0	0	0
0.06483708	81.96272577	234.1947394	0	0	0	0	0	0	0
0.06885538	88.7972314	232.4016964	0	0	0	0	0	0	0
0.07579751	100.1513331	230.8671567	0	0	0	0	0	0	0
0.08715056	131.7989692	229.7693362	0	0	0	0	0	0	0
0.08828586	125.2183867	228.9070969	0	0	0	0	0	0	0
0.09025508	124.6113987	228.2342484	0	0	0	0	0	0	0
0.09499713	130.1676942	227.1160556	0	0	0	0	0	0	0
0.10270958	141.5502376	225.2279273	0	0	0	0	0	0	0
0.11042203	150.3307889	223.7677842	0	0	0	0	0	0	0
0.12333449	155.1302271	224.736899	0	0	0	0	0	0	0
0.12462573	158.2809642	225.201777	0	0	0	0	0	0	0
0.12752127	160.2370967	225.9247156	0	0	0	0	0	0	0
0.13582514	164.6740999	228.1517477	0	0	0	0	0	0	0
0.14130281	164.0253216	229.4225969	0	0	0	0	0	0	0
0.14877431	168.3977557	231.4920533	0	0	0	0	0	0	0
0.15236185	166.3777617	232.1708317	0	0	0	0	0	0	0
0.15959768	165.343484	233.6747224	0	0	0	0	0	0	0
0.1646629	172.1542144	235.1345559	0	0	0	0	0	0	0
0.16848373	167.4249793	235.5701776	0	0	0	0	0	0	0
0.17403905	166.151104	236.4999713	0	0	0	0	0	0	0
0.1804603	176.8784017	238.155898	0	0	0	0	0	0	0
0.18179082	170.1050875	237.9798894	0	0	0	0	0	0	0
0.18461504	166.7977125	238.2171009	0	0	0	0	0	0	0
0.19040775	163.8894366	238.8619738	0	0	0	0	0	0	0
0.19444036	169.6363468	239.6356296	0	0	0	0	0	0	0
0.19847297	164.7946535	239.8523039	0	0	0	0	0	0	0
0.20431645	161.8218321	240.097407	0	0	0	0	0	0	0
0.20803763	166.7497852	240.1518623	0	0	0	0	0	0	0
0.21175882	161.658887	239.5529899	0	0	0	0	0	0	0
0.21737935	155.6541436	238.3760002	0	0	0	0	0	0	0
0.21891606	159.5313167	238.1453949	0	0	0	0	0	0	0
0.22132726	158.1001605	237.4573069	0	0	0	0	0	0	0
0.22845827	153.7706011	234.8008555	0	0	0	0	0	0	0
0.23026731	155.6711765	234.0618581	0	0	0	0	0	0	0
0.23333982	154.0727519	232.6010026	0	0	0	0	0	0	0
0.23941518	168.7996463	229.6348636	0	0	0	0	0	0	0
0.24042438	158.0158129	228.9376233	0	0	0	0	0	0	0
0.2423291	153.0848136	227.8064493	0	0	0	0	0	0	0
0.24672452	147.6755996	225.2072728	0	0	0	0	0	0	0
0.24977088	153.464217	223.3808547	0	0	0	0	0	0	0
0.25346297	147.7375533	221.0775929	0	0	0	0	0	0	0
0.25920768	144.6423741	217.42088	0	0	0	0	0	0	0
0.26129936	146.1326802	216.0389358	0	0	0	0	0	0	0
0.26485828	143.0461248	213.7176106	0	0	0	0	0	0	0
0.26885006	158.8988066	210.7124617	0	0	0	0	0	0	0
0.26986283	147.5924188	210.2321576	0	0	0	0	0	0	0
0.27186418	142.4881327	208.9616872	0	0	0	0	0	0	0
0.27583637	135.0620435	206.4129034	0	0	0	0	0	0	0
0.27716304	140.7837298	205.3238609	0	0	0	0	0	0	0
0.27903705	138.6293737	204.075258	0	0	0	0	0	0	0
0.28370403	127.6300109	201.1882766	0	0	0	0	0	0	0
0.28428495	134.4698812	200.5127025	0	0	0	0	0	0	0
0.28585555	136.8030164	199.298396	0	0	0	0	0	0	0
0.28847594	134.5862918	197.5103909	0	0	0	0	0	0	0
0.29285044	149.6764341	193.5684473	0	0	0	0	0	0	0
0.29378777	138.4040412	193.4455376	0	0	0	0	0	0	0
0.29579555	133.0929874	192.2465271	0	0	0	0	0	0	0
0.2994257	125.1909777	190.0378082	0	0	0	0	0	0	0
0.3006312	131.7191933	188.7351041	0	0	0	0	0	0	0
0.30226478	129.1305027	187.4402382	0	0	0	0	0	0	0
0.30752767	119.7410713	181.4917252	0	0	0	0	0	0	0
0.31279056	113.6796854	172.6925963	0	0	0	0	0	0	0
0.32065695	100.318702	155.5966103	0	0	0	0	0	0	0
0.33301556	78.25704057	124.4503837	0	0	0	0	0	0	0
0.35003665	49.46893176	80.52383415	0	0	0	0	0	0	0
0.38178795	4.28115196	6.79179282	0	0	0	0	0	0	0
0.39940849	0	0	0	0	0	0	0	0	0
0.40953958	0	0	0	0	0	0	0	0	0
0.41967066	0	0	0	0	0	0	0	0	0
0.43533541	0	0	0	0	0	0	0	0	0
0.44213512	0	0	0	0	0	0	0	0	0
0.4514508	0	0	0	0	0	0	0	0	0
0.46596993	0	0	0	0	0	0	0	0	0
0.47243083	0	0	0	0	0	0	0	0	0
0.48080439	0	0	0	0	0	0	0	0	0
0.49096463	0	0	0	0	0	0	0	0	0
0.50026896	0	0	0	0	0	0	0	0	0
0.50828391	0	0	0	0	0	0	0	0	0
0.51629887	0	0	0	0	0	0	0	0	0
0.52431382	0	0	0	0	0	0	0	0	0
0.53114128	0	0	0	0	0	0	0	0	0
0.53796873	0	0	0	0	0	0	0	0	0
0.54479619	0	0	0	0	0	0	0	0	0
0.55418871	0	0	0	0	0	0	0	0	0
0.56121731	0	0	0	0	0	0	0	0	0
0.56824591	0	0	0	0	0	0	0	0	0
0.57527451	0	0	0	0	0	0	0	0	0
0.58230311	0	0	0	0	0	0	0	0	0
0.59121898	0	0	0	0	0	0	0	0	0
0.59761712	0	0	0	0	0	0	0	0	0
0.60401525	0	0	0	0	0	0	0	0	0
0.61278349	0	0	0	0	0	0	0	0	0
0.62045866	0	0	0	0	0	0	0	0	0
0.62723556	0	0	0	0	0	0	0	0	0
0.63401246	0	0	0	0	0	0	0	0	0
0.64078936	0	0	0	0	0	0	0	0	0
0.64912126	0	0	0	0	0	0	0	0	0
0.65588161	0	0	0	0	0	0	0	0	0
0.66264196	0	0	0	0	0	0	0	0	0
0.66940231	0	0	0	0	0	0	0	0	0
0.67789202	0	0	0	0	0	0	0	0	0
0.68454708	0	0	0	0	0	0	0	0	0
0.69120215	0	0	0	0	0	0	0	0	0
0.69922246	0	0	0	0	0	0	0	0	0
0.70907448	0	0	0	0	0	0	0	0	0
0.71789625	0	0	0	0	0	0	0	0	0
0.72671802	0	0	0	0	0	0	0	0	0
0.73449862	0	0	0	0	0	0	0	0	0
0.74227921	0	0	0	0	0	0	0	0	0
0.75781988	0	0	0	0	0	0	0	0	0
0.77336054	0	0	0	0	0	0	0	0	0
0.78890121	0	0	0	0	0	0	0	0	0
0.80548292	0	0	0	0	0	0	0	0	0
0.82206462	0	0	0	0	0	0	0	0	0
0.83654344	0	0	0	0	0	0	0	0	0
0.84701047	0	0	0	0	0	0	0	0	0
0.85747751	0	0	0	0	0	0	0	0	0
0.86954023	0	0	0	0	0	0	0	0	0
0.87949189	0	0	0	0	0	0	0	0	0
0.88944354	0	0	0	0	0	0	0	0	0
0.90165061	0	0	0	0	0	0	0	0	0
0.91253188	0	0	0	0	0	0	0	0	0
0.92341314	0	0	0	0	0	0	0	0	0
0.93693908	0	0	0	0	0	0	0	0	0
0.95046502	0	0	0	0	0	0	0	0	0
0.9614651	0	0	0	0	0	0	0	0	0
0.97246517	0	0	0	0	0	0	0	0	0
0.97935982	0	0	0	0	0	0	0	0	0
0.98625447	0	0	0	0	0	0	0	0	0
0.99778348	0	0	0	0	0	0	0	0	0
1.00543329	0	0	0	0	0	0	0	0	0
1.01308311	0	0	0	0	0	0	0	0	0
1.02390321	0	0	0	0	0	0	0	0	0
1.03472331	0	0	0	0	0	0	0	0	0
1.0443927	0	0	0	0	0	0	0	0	0
1.05406208	0	0	0	0	0	0	0	0	0
1.06464855	0	0	0	0	0	0	0	0	0
1.07523503	0	0	0	0	0	0	0	0	0
1.0858215	0	0	0	0	0	0	0	0	0
1.09640797	0	0	0	0	0	0	0	0	0
1.10260294	0	0	0	0	0	0	0	0	0
1.10988437	0	0	0	0	0	0	0	0	0
1.1171658	0	0	0	0	0	0	0	0	0
1.12444723	0	0	0	0	0	0	0	0	0
1.13172866	0	0	0	0	0	0	0	0	0
1.13901009	0	0	0	0	0	0	0	0	0
1.14439701	0	0	0	0	0	0	0	0	0
